<svg xmlns="http://www.w3.org/2000/svg" viewBox="0 0 1200 900" preserveAspectRatio="none">
<defs><linearGradient id="g" x1="0" y1="0" x2="1" y2="1"><stop stop-color="#fff0a8"/><stop offset=".2" stop-color="#f6c64b"/><stop offset=".52" stop-color="#9b5b0a"/><stop offset=".82" stop-color="#e0a82c"/><stop offset="1" stop-color="#5a2a00"/></linearGradient><linearGradient id="b" x1="0" y1="0" x2="1" y2="0"><stop stop-color="#22060f"/><stop offset=".5" stop-color="#5b1022"/><stop offset="1" stop-color="#22060f"/></linearGradient><filter id="glow"><feGaussianBlur stdDeviation="4" result="x"/><feMerge><feMergeNode in="x"/><feMergeNode in="SourceGraphic"/></feMerge></filter></defs>
<path d="M30 110Q55 82 84 74L130 42L188 67L242 30L300 68L450 24L600 10L750 24L900 68L958 30L1012 67L1070 42L1116 74Q1145 82 1170 110L1140 144L1140 770Q1140 818 1092 842L1080 876H120V842Q72 818 60 770V144Z" fill="rgba(4,11,22,.2)" stroke="url(#g)" stroke-width="9"/>
<rect x="68" y="98" width="1064" height="720" rx="28" fill="none" stroke="#0b203e" stroke-width="28" opacity=".92"/><rect x="72" y="102" width="1056" height="712" rx="24" fill="none" stroke="url(#g)" stroke-width="5"/>
<g fill="url(#b)" stroke="url(#g)" stroke-width="5"><rect x="48" y="160" width="48" height="600" rx="18"/><rect x="1104" y="160" width="48" height="600" rx="18"/></g>
<g fill="none" stroke="#ff4d88" stroke-width="2" opacity=".5"><path d="M62 215h20M62 255h20M62 295h20M62 335h20M62 375h20M62 415h20M62 455h20M62 495h20M62 535h20M62 575h20M62 615h20M62 655h20M62 695h20"/><path d="M1118 215h20M1118 255h20M1118 295h20M1118 335h20M1118 375h20M1118 415h20M1118 455h20M1118 495h20M1118 535h20M1118 575h20M1118 615h20M1118 655h20M1118 695h20"/></g>
<g filter="url(#glow)"><path d="M470 70L520 38L570 70L600 46L630 70L680 38L730 70L690 106L650 95L600 115L550 95L510 106Z" fill="url(#g)" stroke="#fff0a8" stroke-width="3"/><circle cx="600" cy="62" r="18" fill="#f7c94f" stroke="#fff4bd" stroke-width="3"/></g>
<g fill="url(#g)" stroke="#6d3b00" stroke-width="3"><path d="M180 95L222 68L265 95L240 118L205 111Z"/><path d="M1020 95L978 68L935 95L960 118L995 111Z"/><path d="M180 805L222 832L265 805L240 782L205 789Z"/><path d="M1020 805L978 832L935 805L960 782L995 789Z"/></g>
<g opacity=".55" fill="none" stroke="#ff3e72" stroke-width="2"><circle cx="600" cy="55" r="36"/><circle cx="600" cy="55" r="46"/></g></svg>